<svg xmlns="http://www.w3.org/2000/svg" viewBox="0 0 60 75" fill="none" x="0px" y="0px">
  <path d="M50.375 49.35H9.62497C9.29345 49.35 8.97551 49.2183 8.74109 48.9839C8.50667 48.7495 8.37497 48.4315 8.37497 48.1V7.5C8.37497 7.16848 8.50667 6.85054 8.74109 6.61612C8.97551 6.3817 9.29345 6.25 9.62497 6.25H50.375C50.7065 6.25 51.0244 6.3817 51.2589 6.61612C51.4933 6.85054 51.625 7.16848 51.625 7.5V48.1C51.625 48.4315 51.4933 48.7495 51.2589 48.9839C51.0244 49.2183 50.7065 49.35 50.375 49.35ZM10.875 46.85H49.125V8.625H10.875V46.85Z" fill="#777"/>
  <path d="M30 49.35C29.6685 49.35 29.3505 49.2183 29.1161 48.9839C28.8817 48.7495 28.75 48.4315 28.75 48.1V7.5C28.75 7.16848 28.8817 6.85054 29.1161 6.61612C29.3505 6.3817 29.6685 6.25 30 6.25C30.3315 6.25 30.6495 6.3817 30.8839 6.61612C31.1183 6.85054 31.25 7.16848 31.25 7.5V48.1C31.25 48.4315 31.1183 48.7495 30.8839 48.9839C30.6495 49.2183 30.3315 49.35 30 49.35Z" fill="#777"/>
  <path d="M50.375 28.975H9.62497C9.29345 28.975 8.97551 28.8433 8.74109 28.6089C8.50667 28.3744 8.37497 28.0565 8.37497 27.725C8.37497 27.3935 8.50667 27.0755 8.74109 26.8411C8.97551 26.6067 9.29345 26.475 9.62497 26.475H50.375C50.7065 26.475 51.0244 26.6067 51.2589 26.8411C51.4933 27.0755 51.625 27.3935 51.625 27.725C51.625 28.0565 51.4933 28.3744 51.2589 28.6089C51.0244 28.8433 50.7065 28.975 50.375 28.975Z" fill="#777"/>
  <path d="M16.2749 53.875C15.9434 53.875 15.6255 53.7433 15.391 53.5089C15.1566 53.2744 15.0249 52.9565 15.0249 52.625V48.1C15.0249 47.7685 15.1566 47.4505 15.391 47.2161C15.6255 46.9817 15.9434 46.85 16.2749 46.85C16.6065 46.85 16.9244 46.9817 17.1588 47.2161C17.3932 47.4505 17.5249 47.7685 17.5249 48.1V52.625C17.5249 52.9565 17.3932 53.2744 17.1588 53.5089C16.9244 53.7433 16.6065 53.875 16.2749 53.875Z" fill="#777"/>
  <path d="M43.725 53.875C43.3935 53.875 43.0755 53.7433 42.8411 53.5089C42.6067 53.2744 42.475 52.9565 42.475 52.625V48.1C42.475 47.7685 42.6067 47.4505 42.8411 47.2161C43.0755 46.9817 43.3935 46.85 43.725 46.85C44.0565 46.85 44.3745 46.9817 44.6089 47.2161C44.8433 47.4505 44.975 47.7685 44.975 48.1V52.625C44.975 52.9565 44.8433 53.2744 44.6089 53.5089C44.3745 53.7433 44.0565 53.875 43.725 53.875Z" fill="#777"/>
  <path d="M35.575 28.975C35.2435 28.975 34.9255 28.8433 34.6911 28.6089C34.4567 28.3745 34.325 28.0565 34.325 27.725V14.15C34.325 13.8185 34.4567 13.5006 34.6911 13.2661C34.9255 13.0317 35.2435 12.9 35.575 12.9C35.9045 12.9064 36.2187 13.0402 36.4518 13.2732C36.6848 13.5063 36.8186 13.8205 36.825 14.15V27.725C36.825 28.0565 36.6933 28.3745 36.4589 28.6089C36.2244 28.8433 35.9065 28.975 35.575 28.975Z" fill="#777"/>
  <path d="M44.8 28.975C44.535 28.9794 44.276 28.8959 44.0634 28.7376C43.8509 28.5793 43.6967 28.3551 43.625 28.1L40.1249 16.775C40.0543 16.6134 40.0186 16.4387 40.0203 16.2624C40.0219 16.086 40.0609 15.912 40.1346 15.7518C40.2083 15.5915 40.315 15.4487 40.4479 15.3327C40.5807 15.2167 40.7366 15.1301 40.9052 15.0786C41.0739 15.0271 41.2516 15.0119 41.4266 15.0339C41.6016 15.056 41.7699 15.1148 41.9205 15.2066C42.0711 15.2983 42.2006 15.4209 42.3005 15.5663C42.4004 15.7116 42.4683 15.8765 42.5 16.05L46 27.5C46.0938 27.8149 46.0598 28.1542 45.9054 28.4442C45.751 28.7343 45.4886 28.952 45.175 29.05C45.0462 29.05 44.9188 29.0245 44.8 28.975Z" fill="#777"/>
  <path d="M23.2 49.35C22.8684 49.35 22.5505 49.2183 22.3161 48.9839C22.0817 48.7495 21.95 48.4315 21.95 48.1V34.525C21.95 34.1935 22.0817 33.8756 22.3161 33.6411C22.5505 33.4067 22.8684 33.275 23.2 33.275C23.5315 33.275 23.8494 33.4067 24.0839 33.6411C24.3183 33.8756 24.45 34.1935 24.45 34.525V48.1C24.45 48.4315 24.3183 48.7495 24.0839 48.9839C23.8494 49.2183 23.5315 49.35 23.2 49.35Z" fill="#777"/>
  <path d="M43.575 49.35H36.8C36.4684 49.35 36.1505 49.2183 35.9161 48.9839C35.6817 48.7495 35.55 48.4315 35.55 48.1V36.8C35.55 36.4685 35.6817 36.1505 35.9161 35.9161C36.1505 35.6817 36.4684 35.55 36.8 35.55H43.575C43.9065 35.55 44.2244 35.6817 44.4588 35.9161C44.6933 36.1505 44.825 36.4685 44.825 36.8V48.1C44.825 48.4315 44.6933 48.7495 44.4588 48.9839C44.2244 49.2183 43.9065 49.35 43.575 49.35ZM38.05 46.85H42.325V38.05H38.05V46.85Z" fill="#777"/>
  </svg>
