<svg width="50" height="75" viewBox="0 0 50 75" fill="none" xmlns="http://www.w3.org/2000/svg">
<rect x="0.5" y="0.5" width="49" height="74" rx="7.5" fill="white" stroke="#AAAAAA"/>
<mask id="path-2-inside-1_148_34" fill="white">
<path d="M25.0322 24C24.4907 23.9995 23.9612 24.1596 23.5107 24.4601C23.0603 24.7606 22.7091 25.188 22.5016 25.6882C22.2942 26.1883 22.2397 26.7388 22.3452 27.2699C22.4508 27.8011 22.7115 28.2889 23.0943 28.6718C23.4772 29.0547 23.9651 29.3154 24.4962 29.4209C25.0274 29.5265 25.5778 29.472 26.078 29.2646C26.5782 29.0571 27.0056 28.7059 27.3061 28.2555C27.6066 27.805 27.7667 27.2755 27.7662 26.734C27.7655 26.0091 27.4772 25.3141 26.9646 24.8016C26.4521 24.289 25.7571 24.0007 25.0322 24ZM25.0322 28.227C24.7368 28.2275 24.4478 28.1404 24.202 27.9767C23.9561 27.813 23.7643 27.58 23.6509 27.3072C23.5375 27.0345 23.5076 26.7342 23.5649 26.4444C23.6222 26.1546 23.7641 25.8883 23.9728 25.6793C24.1815 25.4702 24.4475 25.3277 24.7372 25.2699C25.0269 25.2121 25.3272 25.2415 25.6002 25.3544C25.8732 25.4673 26.1065 25.6587 26.2707 25.9043C26.4348 26.1499 26.5225 26.4386 26.5225 26.734C26.5218 27.1293 26.3646 27.5082 26.0854 27.788C25.8061 28.0678 25.4274 28.2256 25.0322 28.227ZM20.0948 30.0417C20.0942 29.4384 19.8845 28.854 19.5014 28.388C19.1183 27.922 18.5855 27.6032 17.9937 27.4859C17.4019 27.3687 16.7878 27.4602 16.256 27.7449C15.7241 28.0296 15.3074 28.4899 15.0768 29.0474C14.8462 29.6048 14.816 30.225 14.9913 30.8022C15.1667 31.3795 15.5367 31.8781 16.0384 32.2131C16.54 32.5481 17.1424 32.6989 17.7427 32.6397C18.3431 32.5805 18.9043 32.315 19.3309 31.8885C19.574 31.6464 19.7667 31.3586 19.8978 31.0416C20.029 30.7246 20.0959 30.3847 20.0948 30.0417ZM18.4518 31.0066C18.1954 31.2628 17.8479 31.4067 17.4855 31.4067C17.1231 31.4067 16.7755 31.2628 16.5192 31.0066C16.3279 30.8155 16.1976 30.5719 16.1448 30.3067C16.092 30.0415 16.119 29.7666 16.2224 29.5167C16.3259 29.2669 16.5011 29.0533 16.7259 28.9031C16.9507 28.7528 17.2151 28.6726 17.4855 28.6726C17.7559 28.6726 18.0202 28.7528 18.245 28.9031C18.4699 29.0533 18.6451 29.2669 18.7485 29.5167C18.8519 29.7666 18.879 30.0415 18.8261 30.3067C18.7733 30.5719 18.643 30.8155 18.4518 31.0066ZM14.4847 40.1977C14.9769 40.1983 15.4582 40.0528 15.8677 39.7796C16.2772 39.5065 16.5964 39.1181 16.785 38.6634C16.9736 38.2088 17.0231 37.7085 16.9272 37.2257C16.8313 36.7429 16.5943 36.2995 16.2463 35.9514C15.8983 35.6034 15.4548 35.3664 14.972 35.2706C14.4893 35.1747 13.9889 35.2241 13.5343 35.4127C13.0797 35.6013 12.6912 35.9206 12.4181 36.33C12.145 36.7395 11.9995 37.2208 12 37.713C12.0007 38.3718 12.2627 39.0034 12.7285 39.4692C13.1944 39.935 13.826 40.197 14.4847 40.1977ZM14.4847 36.4706C14.4847 36.4699 14.4853 36.4693 14.4861 36.4693C14.7317 36.469 14.9719 36.5415 15.1764 36.6776C15.3813 36.8139 15.5411 37.008 15.6357 37.2352C15.7302 37.4624 15.7552 37.7125 15.7076 37.954C15.6599 38.1954 15.5416 38.4173 15.3678 38.5915C15.194 38.7657 14.9724 38.8844 14.731 38.9326C14.4897 38.9808 14.2395 38.9563 14.0121 38.8623C13.7847 38.7682 13.5903 38.6088 13.4535 38.4042C13.3167 38.1997 13.2437 37.9591 13.2437 37.713C13.2444 37.3841 13.3754 37.0688 13.608 36.8362C13.8403 36.604 14.155 36.473 14.4834 36.472C14.4841 36.472 14.4847 36.4714 14.4847 36.4706V36.4706ZM15.4309 45.261C15.431 45.8074 15.6205 46.3368 15.9671 46.7591C16.3137 47.1813 16.796 47.4704 17.3319 47.5769C17.8677 47.6835 18.4239 47.6009 18.9057 47.3433C19.3875 47.0858 19.7651 46.6691 19.9741 46.1643C20.1832 45.6596 20.2107 45.098 20.0521 44.5752C19.8935 44.0524 19.5585 43.6008 19.1042 43.2973C18.6499 42.9938 18.1045 42.8572 17.5608 42.9108C17.0171 42.9644 16.5088 43.2048 16.1225 43.5911C15.902 43.8095 15.7273 44.0697 15.6085 44.3564C15.4898 44.6432 15.4294 44.9507 15.4309 45.261ZM17.0017 44.4636C17.0017 44.4593 17.0034 44.4552 17.0064 44.4522C17.1621 44.2985 17.3594 44.1939 17.574 44.1513C17.7908 44.1083 18.0154 44.1304 18.2196 44.2151C18.4238 44.2997 18.5983 44.443 18.7211 44.6268C18.8438 44.8105 18.9094 45.0266 18.9094 45.2476C18.9094 45.4686 18.8438 45.6847 18.7211 45.8685C18.5983 46.0523 18.4238 46.1955 18.2196 46.2802C18.0154 46.3648 17.7908 46.387 17.574 46.344C17.3572 46.3009 17.158 46.1946 17.0017 46.0383C16.7952 45.8296 16.6795 45.5479 16.6795 45.2543C16.6795 44.963 16.7935 44.6833 16.997 44.4751C17 44.472 17.0017 44.4679 17.0017 44.4636V44.4636ZM23.2282 48.247C23.2282 48.6897 23.3595 49.1224 23.6054 49.4905C23.8514 49.8585 24.2009 50.1454 24.6099 50.3148C25.0189 50.4842 25.4689 50.5285 25.903 50.4421C26.3372 50.3558 26.736 50.1426 27.049 49.8296C27.362 49.5166 27.5752 49.1178 27.6615 48.6836C27.7479 48.2495 27.7036 47.7995 27.5342 47.3905C27.3648 46.9815 27.0779 46.632 26.7098 46.3861C26.3418 46.1401 25.9091 46.0089 25.4664 46.0089C25.1714 46.0092 24.8795 46.0678 24.6072 46.1812C24.3349 46.2947 24.0878 46.4607 23.8798 46.6699C23.6719 46.8791 23.5073 47.1273 23.3955 47.4002C23.2837 47.6731 23.2268 47.9655 23.2282 48.2604V48.247ZM26.4608 48.247C26.4608 48.4437 26.4025 48.636 26.2932 48.7995C26.184 48.963 26.0287 49.0905 25.8469 49.1657C25.6652 49.241 25.4653 49.2607 25.2724 49.2223C25.0795 49.184 24.9023 49.0893 24.7632 48.9502C24.6241 48.8111 24.5294 48.6339 24.4911 48.441C24.4527 48.2481 24.4724 48.0482 24.5477 47.8665C24.6229 47.6847 24.7504 47.5294 24.9139 47.4202C25.0774 47.3109 25.2697 47.2526 25.4664 47.2526C25.598 47.2529 25.7283 47.2793 25.8496 47.3303C25.971 47.3812 26.0811 47.4557 26.1735 47.5494C26.266 47.643 26.339 47.7541 26.3883 47.8762C26.4376 47.9982 26.4622 48.1288 26.4608 48.2604V48.247ZM33.0118 47.0609C33.0118 47.0572 33.0148 47.0542 33.0184 47.0542C33.5055 47.0532 33.9773 46.8841 34.3541 46.5754C34.7327 46.2652 34.992 45.8334 35.0878 45.3535C35.1837 44.8736 35.1101 44.3753 34.8796 43.9435C34.6492 43.5118 34.2762 43.1733 33.8241 42.9859C33.372 42.7984 32.869 42.7735 32.4006 42.9154C31.9322 43.0574 31.5276 43.3573 31.2557 43.7642C30.9837 44.1711 30.8613 44.6597 30.9093 45.1467C30.9573 45.6337 31.1727 46.0891 31.5188 46.435C31.7133 46.6341 31.9455 46.7925 32.2018 46.9011C32.456 47.0089 32.729 47.0654 33.005 47.0676C33.0087 47.0676 33.0118 47.0646 33.0118 47.0609V47.0609ZM32.3979 44.3403C32.3979 44.3395 32.3983 44.3386 32.3989 44.338C32.5001 44.2373 32.6246 44.1629 32.7613 44.1216C32.8985 44.0801 33.0438 44.0731 33.1843 44.1013C33.3248 44.1294 33.4562 44.1917 33.5669 44.2828C33.6775 44.3738 33.764 44.4907 33.8187 44.6232C33.8733 44.7557 33.8945 44.8996 33.8802 45.0422C33.866 45.1847 33.8167 45.3216 33.7369 45.4406C33.6571 45.5596 33.5492 45.6571 33.4227 45.7245C33.2962 45.7918 33.1551 45.8269 33.0118 45.8266C32.8401 45.8257 32.6725 45.7742 32.53 45.6784C32.3876 45.5826 32.2766 45.4469 32.211 45.2883C32.1454 45.1296 32.1282 44.9551 32.1614 44.7867C32.1946 44.6187 32.2766 44.4643 32.397 44.3426C32.3976 44.342 32.3979 44.3412 32.3979 44.3403V44.3403ZM34.0223 37.2814C34.0223 37.6748 34.1389 38.0593 34.3575 38.3864C34.576 38.7135 34.8866 38.9684 35.25 39.1189C35.6134 39.2694 36.0133 39.3088 36.3991 39.2321C36.7849 39.1554 37.1393 38.9659 37.4175 38.6878C37.6956 38.4096 37.885 38.0553 37.9618 37.6695C38.0385 37.2836 37.9991 36.8838 37.8486 36.5203C37.6981 36.1569 37.4432 35.8463 37.1161 35.6278C36.789 35.4092 36.4045 35.2926 36.0111 35.2926C35.4839 35.2933 34.9784 35.5031 34.6056 35.8759C34.2327 36.2487 34.023 36.7542 34.0223 37.2814ZM36.7563 37.2814C36.7563 37.4288 36.7126 37.5729 36.6307 37.6954C36.5488 37.818 36.4325 37.9135 36.2963 37.9699C36.1601 38.0263 36.0103 38.041 35.8658 38.0123C35.7212 37.9835 35.5884 37.9126 35.4842 37.8083C35.38 37.7041 35.309 37.5714 35.2803 37.4268C35.2515 37.2823 35.2663 37.1324 35.3227 36.9963C35.3791 36.8601 35.4746 36.7437 35.5971 36.6619C35.7197 36.58 35.8638 36.5363 36.0111 36.5363C36.2088 36.5363 36.3983 36.6148 36.538 36.7545C36.6778 36.8943 36.7563 37.0838 36.7563 37.2814ZM32.7062 31.599C33.1409 31.5977 33.5616 31.4455 33.8965 31.1684C34.2314 30.8914 34.4598 30.5066 34.5425 30.0799C34.6253 29.6532 34.5573 29.211 34.3502 28.8288C34.1432 28.4466 33.8098 28.1482 33.4071 27.9845C33.0045 27.8208 32.5575 27.802 32.1425 27.9313C31.7275 28.0606 31.3702 28.33 31.1318 28.6934C30.8933 29.0568 30.7885 29.4918 30.8351 29.924C30.8817 30.3561 31.0769 30.7587 31.3874 31.0629C31.7385 31.4094 32.2129 31.6022 32.7062 31.599ZM32.2666 29.2938C32.3832 29.1773 32.5413 29.1118 32.7062 29.1118C32.871 29.1118 33.0292 29.1773 33.1458 29.2938C33.2328 29.3808 33.292 29.4916 33.3161 29.6122C33.3401 29.7328 33.3278 29.8579 33.2807 29.9716C33.2337 30.0852 33.154 30.1823 33.0517 30.2507C32.9494 30.319 32.8292 30.3555 32.7062 30.3555C32.5832 30.3555 32.4629 30.319 32.3607 30.2507C32.2584 30.1823 32.1787 30.0852 32.1316 29.9716C32.0846 29.8579 32.0723 29.7328 32.0963 29.6122C32.1203 29.4916 32.1796 29.3808 32.2666 29.2938Z"/>
</mask>
<path d="M25.0322 24C24.4907 23.9995 23.9612 24.1596 23.5107 24.4601C23.0603 24.7606 22.7091 25.188 22.5016 25.6882C22.2942 26.1883 22.2397 26.7388 22.3452 27.2699C22.4508 27.8011 22.7115 28.2889 23.0943 28.6718C23.4772 29.0547 23.9651 29.3154 24.4962 29.4209C25.0274 29.5265 25.5778 29.472 26.078 29.2646C26.5782 29.0571 27.0056 28.7059 27.3061 28.2555C27.6066 27.805 27.7667 27.2755 27.7662 26.734C27.7655 26.0091 27.4772 25.3141 26.9646 24.8016C26.4521 24.289 25.7571 24.0007 25.0322 24ZM25.0322 28.227C24.7368 28.2275 24.4478 28.1404 24.202 27.9767C23.9561 27.813 23.7643 27.58 23.6509 27.3072C23.5375 27.0345 23.5076 26.7342 23.5649 26.4444C23.6222 26.1546 23.7641 25.8883 23.9728 25.6793C24.1815 25.4702 24.4475 25.3277 24.7372 25.2699C25.0269 25.2121 25.3272 25.2415 25.6002 25.3544C25.8732 25.4673 26.1065 25.6587 26.2707 25.9043C26.4348 26.1499 26.5225 26.4386 26.5225 26.734C26.5218 27.1293 26.3646 27.5082 26.0854 27.788C25.8061 28.0678 25.4274 28.2256 25.0322 28.227ZM20.0948 30.0417C20.0942 29.4384 19.8845 28.854 19.5014 28.388C19.1183 27.922 18.5855 27.6032 17.9937 27.4859C17.4019 27.3687 16.7878 27.4602 16.256 27.7449C15.7241 28.0296 15.3074 28.4899 15.0768 29.0474C14.8462 29.6048 14.816 30.225 14.9913 30.8022C15.1667 31.3795 15.5367 31.8781 16.0384 32.2131C16.54 32.5481 17.1424 32.6989 17.7427 32.6397C18.3431 32.5805 18.9043 32.315 19.3309 31.8885C19.574 31.6464 19.7667 31.3586 19.8978 31.0416C20.029 30.7246 20.0959 30.3847 20.0948 30.0417ZM18.4518 31.0066C18.1954 31.2628 17.8479 31.4067 17.4855 31.4067C17.1231 31.4067 16.7755 31.2628 16.5192 31.0066C16.3279 30.8155 16.1976 30.5719 16.1448 30.3067C16.092 30.0415 16.119 29.7666 16.2224 29.5167C16.3259 29.2669 16.5011 29.0533 16.7259 28.9031C16.9507 28.7528 17.2151 28.6726 17.4855 28.6726C17.7559 28.6726 18.0202 28.7528 18.245 28.9031C18.4699 29.0533 18.6451 29.2669 18.7485 29.5167C18.8519 29.7666 18.879 30.0415 18.8261 30.3067C18.7733 30.5719 18.643 30.8155 18.4518 31.0066ZM14.4847 40.1977C14.9769 40.1983 15.4582 40.0528 15.8677 39.7796C16.2772 39.5065 16.5964 39.1181 16.785 38.6634C16.9736 38.2088 17.0231 37.7085 16.9272 37.2257C16.8313 36.7429 16.5943 36.2995 16.2463 35.9514C15.8983 35.6034 15.4548 35.3664 14.972 35.2706C14.4893 35.1747 13.9889 35.2241 13.5343 35.4127C13.0797 35.6013 12.6912 35.9206 12.4181 36.33C12.145 36.7395 11.9995 37.2208 12 37.713C12.0007 38.3718 12.2627 39.0034 12.7285 39.4692C13.1944 39.935 13.826 40.197 14.4847 40.1977ZM14.4847 36.4706C14.4847 36.4699 14.4853 36.4693 14.4861 36.4693C14.7317 36.469 14.9719 36.5415 15.1764 36.6776C15.3813 36.8139 15.5411 37.008 15.6357 37.2352C15.7302 37.4624 15.7552 37.7125 15.7076 37.954C15.6599 38.1954 15.5416 38.4173 15.3678 38.5915C15.194 38.7657 14.9724 38.8844 14.731 38.9326C14.4897 38.9808 14.2395 38.9563 14.0121 38.8623C13.7847 38.7682 13.5903 38.6088 13.4535 38.4042C13.3167 38.1997 13.2437 37.9591 13.2437 37.713C13.2444 37.3841 13.3754 37.0688 13.608 36.8362C13.8403 36.604 14.155 36.473 14.4834 36.472C14.4841 36.472 14.4847 36.4714 14.4847 36.4706V36.4706ZM15.4309 45.261C15.431 45.8074 15.6205 46.3368 15.9671 46.7591C16.3137 47.1813 16.796 47.4704 17.3319 47.5769C17.8677 47.6835 18.4239 47.6009 18.9057 47.3433C19.3875 47.0858 19.7651 46.6691 19.9741 46.1643C20.1832 45.6596 20.2107 45.098 20.0521 44.5752C19.8935 44.0524 19.5585 43.6008 19.1042 43.2973C18.6499 42.9938 18.1045 42.8572 17.5608 42.9108C17.0171 42.9644 16.5088 43.2048 16.1225 43.5911C15.902 43.8095 15.7273 44.0697 15.6085 44.3564C15.4898 44.6432 15.4294 44.9507 15.4309 45.261ZM17.0017 44.4636C17.0017 44.4593 17.0034 44.4552 17.0064 44.4522C17.1621 44.2985 17.3594 44.1939 17.574 44.1513C17.7908 44.1083 18.0154 44.1304 18.2196 44.2151C18.4238 44.2997 18.5983 44.443 18.7211 44.6268C18.8438 44.8105 18.9094 45.0266 18.9094 45.2476C18.9094 45.4686 18.8438 45.6847 18.7211 45.8685C18.5983 46.0523 18.4238 46.1955 18.2196 46.2802C18.0154 46.3648 17.7908 46.387 17.574 46.344C17.3572 46.3009 17.158 46.1946 17.0017 46.0383C16.7952 45.8296 16.6795 45.5479 16.6795 45.2543C16.6795 44.963 16.7935 44.6833 16.997 44.4751C17 44.472 17.0017 44.4679 17.0017 44.4636V44.4636ZM23.2282 48.247C23.2282 48.6897 23.3595 49.1224 23.6054 49.4905C23.8514 49.8585 24.2009 50.1454 24.6099 50.3148C25.0189 50.4842 25.4689 50.5285 25.903 50.4421C26.3372 50.3558 26.736 50.1426 27.049 49.8296C27.362 49.5166 27.5752 49.1178 27.6615 48.6836C27.7479 48.2495 27.7036 47.7995 27.5342 47.3905C27.3648 46.9815 27.0779 46.632 26.7098 46.3861C26.3418 46.1401 25.9091 46.0089 25.4664 46.0089C25.1714 46.0092 24.8795 46.0678 24.6072 46.1812C24.3349 46.2947 24.0878 46.4607 23.8798 46.6699C23.6719 46.8791 23.5073 47.1273 23.3955 47.4002C23.2837 47.6731 23.2268 47.9655 23.2282 48.2604V48.247ZM26.4608 48.247C26.4608 48.4437 26.4025 48.636 26.2932 48.7995C26.184 48.963 26.0287 49.0905 25.8469 49.1657C25.6652 49.241 25.4653 49.2607 25.2724 49.2223C25.0795 49.184 24.9023 49.0893 24.7632 48.9502C24.6241 48.8111 24.5294 48.6339 24.4911 48.441C24.4527 48.2481 24.4724 48.0482 24.5477 47.8665C24.6229 47.6847 24.7504 47.5294 24.9139 47.4202C25.0774 47.3109 25.2697 47.2526 25.4664 47.2526C25.598 47.2529 25.7283 47.2793 25.8496 47.3303C25.971 47.3812 26.0811 47.4557 26.1735 47.5494C26.266 47.643 26.339 47.7541 26.3883 47.8762C26.4376 47.9982 26.4622 48.1288 26.4608 48.2604V48.247ZM33.0118 47.0609C33.0118 47.0572 33.0148 47.0542 33.0184 47.0542C33.5055 47.0532 33.9773 46.8841 34.3541 46.5754C34.7327 46.2652 34.992 45.8334 35.0878 45.3535C35.1837 44.8736 35.1101 44.3753 34.8796 43.9435C34.6492 43.5118 34.2762 43.1733 33.8241 42.9859C33.372 42.7984 32.869 42.7735 32.4006 42.9154C31.9322 43.0574 31.5276 43.3573 31.2557 43.7642C30.9837 44.1711 30.8613 44.6597 30.9093 45.1467C30.9573 45.6337 31.1727 46.0891 31.5188 46.435C31.7133 46.6341 31.9455 46.7925 32.2018 46.9011C32.456 47.0089 32.729 47.0654 33.005 47.0676C33.0087 47.0676 33.0118 47.0646 33.0118 47.0609V47.0609ZM32.3979 44.3403C32.3979 44.3395 32.3983 44.3386 32.3989 44.338C32.5001 44.2373 32.6246 44.1629 32.7613 44.1216C32.8985 44.0801 33.0438 44.0731 33.1843 44.1013C33.3248 44.1294 33.4562 44.1917 33.5669 44.2828C33.6775 44.3738 33.764 44.4907 33.8187 44.6232C33.8733 44.7557 33.8945 44.8996 33.8802 45.0422C33.866 45.1847 33.8167 45.3216 33.7369 45.4406C33.6571 45.5596 33.5492 45.6571 33.4227 45.7245C33.2962 45.7918 33.1551 45.8269 33.0118 45.8266C32.8401 45.8257 32.6725 45.7742 32.53 45.6784C32.3876 45.5826 32.2766 45.4469 32.211 45.2883C32.1454 45.1296 32.1282 44.9551 32.1614 44.7867C32.1946 44.6187 32.2766 44.4643 32.397 44.3426C32.3976 44.342 32.3979 44.3412 32.3979 44.3403V44.3403ZM34.0223 37.2814C34.0223 37.6748 34.1389 38.0593 34.3575 38.3864C34.576 38.7135 34.8866 38.9684 35.25 39.1189C35.6134 39.2694 36.0133 39.3088 36.3991 39.2321C36.7849 39.1554 37.1393 38.9659 37.4175 38.6878C37.6956 38.4096 37.885 38.0553 37.9618 37.6695C38.0385 37.2836 37.9991 36.8838 37.8486 36.5203C37.6981 36.1569 37.4432 35.8463 37.1161 35.6278C36.789 35.4092 36.4045 35.2926 36.0111 35.2926C35.4839 35.2933 34.9784 35.5031 34.6056 35.8759C34.2327 36.2487 34.023 36.7542 34.0223 37.2814ZM36.7563 37.2814C36.7563 37.4288 36.7126 37.5729 36.6307 37.6954C36.5488 37.818 36.4325 37.9135 36.2963 37.9699C36.1601 38.0263 36.0103 38.041 35.8658 38.0123C35.7212 37.9835 35.5884 37.9126 35.4842 37.8083C35.38 37.7041 35.309 37.5714 35.2803 37.4268C35.2515 37.2823 35.2663 37.1324 35.3227 36.9963C35.3791 36.8601 35.4746 36.7437 35.5971 36.6619C35.7197 36.58 35.8638 36.5363 36.0111 36.5363C36.2088 36.5363 36.3983 36.6148 36.538 36.7545C36.6778 36.8943 36.7563 37.0838 36.7563 37.2814ZM32.7062 31.599C33.1409 31.5977 33.5616 31.4455 33.8965 31.1684C34.2314 30.8914 34.4598 30.5066 34.5425 30.0799C34.6253 29.6532 34.5573 29.211 34.3502 28.8288C34.1432 28.4466 33.8098 28.1482 33.4071 27.9845C33.0045 27.8208 32.5575 27.802 32.1425 27.9313C31.7275 28.0606 31.3702 28.33 31.1318 28.6934C30.8933 29.0568 30.7885 29.4918 30.8351 29.924C30.8817 30.3561 31.0769 30.7587 31.3874 31.0629C31.7385 31.4094 32.2129 31.6022 32.7062 31.599ZM32.2666 29.2938C32.3832 29.1773 32.5413 29.1118 32.7062 29.1118C32.871 29.1118 33.0292 29.1773 33.1458 29.2938C33.2328 29.3808 33.292 29.4916 33.3161 29.6122C33.3401 29.7328 33.3278 29.8579 33.2807 29.9716C33.2337 30.0852 33.154 30.1823 33.0517 30.2507C32.9494 30.319 32.8292 30.3555 32.7062 30.3555C32.5832 30.3555 32.4629 30.319 32.3607 30.2507C32.2584 30.1823 32.1787 30.0852 32.1316 29.9716C32.0846 29.8579 32.0723 29.7328 32.0963 29.6122C32.1203 29.4916 32.1796 29.3808 32.2666 29.2938Z" fill="#777777" stroke="#AAAAAA" stroke-width="2" mask="url(#path-2-inside-1_148_34)"/>
</svg>
