<svg width="50" height="75" viewBox="0 0 50 75" fill="none" xmlns="http://www.w3.org/2000/svg">
<rect width="50" height="75" fill="#B7E0FF" fill-opacity="0.466667"/>
<path d="M16.7526 27C15.245 27 14.0059 28.2458 14.0059 29.7535V46.2473C14.0059 47.7549 15.245 49.0008 16.7526 49.0008H25.9196C26.04 49.0004 26.1591 48.9763 26.2701 48.9298C26.3812 48.8833 26.482 48.8154 26.5668 48.7299C26.6516 48.6445 26.7188 48.5432 26.7645 48.4318C26.8101 48.3204 26.8334 48.2011 26.8329 48.0807C26.832 47.8387 26.7356 47.6069 26.5645 47.4358C26.3934 47.2647 26.1615 47.1682 25.9196 47.1674H16.7526C16.2356 47.1674 15.8325 46.7643 15.8325 46.2473V29.7535C15.8325 29.2364 16.2356 28.8334 16.7526 28.8334H33.2464C33.7634 28.8334 34.1665 29.2364 34.1665 29.7535V46.2473C34.1665 46.7643 33.7634 47.1674 33.2464 47.1674H32.3331C32.2127 47.1669 32.0934 47.1902 31.982 47.2358C31.8706 47.2815 31.7693 47.3486 31.6838 47.4334C31.5984 47.5182 31.5305 47.619 31.484 47.7301C31.4375 47.8412 31.4134 47.9603 31.413 48.0807C31.4125 48.2016 31.436 48.3215 31.482 48.4333C31.5281 48.5452 31.5959 48.6468 31.6814 48.7324C31.7669 48.8179 31.8686 48.8856 31.9804 48.9317C32.0922 48.9778 32.2121 49.0012 32.3331 49.0008H33.2464C34.754 49.0008 35.9999 47.7549 35.9999 46.2473V29.7535C35.9999 28.2458 34.754 27 33.2464 27H16.7526ZM28.6663 47.1674C28.4243 47.1682 28.1925 47.2647 28.0214 47.4358C27.8503 47.6069 27.7538 47.8387 27.753 48.0807C27.7525 48.2011 27.7757 48.3204 27.8214 48.4318C27.867 48.5432 27.9342 48.6445 28.019 48.7299C28.1038 48.8154 28.2046 48.8833 28.3157 48.9298C28.4268 48.9763 28.5459 49.0004 28.6663 49.0008H29.5796C29.7005 49.0012 29.8204 48.9778 29.9323 48.9317C30.0441 48.8856 30.1457 48.8179 30.2312 48.7324C30.3168 48.6468 30.3845 48.5452 30.4306 48.4333C30.4767 48.3215 30.5001 48.2016 30.4997 48.0807C30.4993 47.9603 30.4751 47.8412 30.4287 47.7301C30.3822 47.619 30.3143 47.5182 30.2288 47.4334C30.1434 47.3486 30.0421 47.2815 29.9307 47.2358C29.8193 47.1902 29.7 47.1669 29.5796 47.1674H28.6663Z" fill="#6BA2D0"/>
<path d="M16.5633 36.891L14.2698 39.1844C14.1843 39.2696 14.1164 39.3708 14.0701 39.4823C14.0238 39.5937 14 39.7132 14 39.8339C14 39.9546 14.0238 40.0741 14.0701 40.1855C14.1164 40.297 14.1843 40.3982 14.2698 40.4834C14.355 40.5689 14.4562 40.6368 14.5677 40.6831C14.6791 40.7294 14.7986 40.7533 14.9193 40.7533C15.04 40.7533 15.1595 40.7294 15.271 40.6831C15.3824 40.6368 15.4836 40.5689 15.5688 40.4834L17.8555 38.1899C18.2645 37.7809 18.901 37.7809 19.31 38.1899L22.9768 41.8567C24.0863 42.9662 25.913 42.9662 27.0224 41.8567L27.9425 40.9367C28.3856 40.4936 29.0701 40.4679 29.5459 40.8757L34.4846 45.1108C34.5761 45.189 34.6821 45.2484 34.7965 45.2856C34.911 45.3228 35.0317 45.3371 35.1517 45.3277C35.2717 45.3182 35.3886 45.2853 35.4959 45.2307C35.6031 45.176 35.6986 45.1008 35.7767 45.0093C35.8549 44.9178 35.9143 44.8118 35.9515 44.6973C35.9887 44.5829 36.0031 44.4622 35.9936 44.3422C35.9842 44.2222 35.9512 44.1053 35.8966 43.998C35.842 43.8908 35.7668 43.7953 35.6753 43.7171L30.7366 39.4888C29.5465 38.4688 27.7519 38.5361 26.6436 39.6443L25.7302 40.5577C25.3212 40.9667 24.6847 40.9667 24.2757 40.5577L20.6089 36.8908C19.4994 35.7814 17.6727 35.7815 16.5633 36.891Z" fill="#6BA2D0"/>
<path d="M31.4158 33.4173C31.4158 33.9034 31.2227 34.3696 30.879 34.7134C30.5353 35.0571 30.069 35.2502 29.5829 35.2502C29.0968 35.2502 28.6306 35.0571 28.2868 34.7134C27.9431 34.3696 27.75 33.9034 27.75 33.4173C27.75 32.9312 27.9431 32.4649 28.2868 32.1212C28.6306 31.7774 29.0968 31.5844 29.5829 31.5844C30.069 31.5844 30.5353 31.7774 30.879 32.1212C31.2227 32.4649 31.4158 32.9312 31.4158 33.4173Z" fill="#6BA2D0"/>
</svg>
