<svg width="50" height="75" viewBox="0 0 50 75" fill="none" xmlns="http://www.w3.org/2000/svg">
<rect x="0.5" y="0.5" width="49" height="74" rx="6.5" fill="white" stroke="#AAAAAA"/>
<path d="M16.7526 27C15.245 27 14.0059 28.2458 14.0059 29.7535V46.2473C14.0059 47.7549 15.245 49.0008 16.7526 49.0008H25.9196C26.04 49.0004 26.1591 48.9763 26.2702 48.9298C26.3813 48.8833 26.4821 48.8154 26.5669 48.7299C26.6517 48.6445 26.7189 48.5432 26.7645 48.4318C26.8102 48.3204 26.8334 48.2011 26.8329 48.0807C26.8321 47.8387 26.7356 47.6069 26.5645 47.4358C26.3934 47.2647 26.1616 47.1682 25.9196 47.1674H16.7526C16.2356 47.1674 15.8326 46.7643 15.8326 46.2473V29.7535C15.8326 29.2364 16.2356 28.8334 16.7526 28.8334H33.2464C33.7635 28.8334 34.1665 29.2364 34.1665 29.7535V46.2473C34.1665 46.7643 33.7635 47.1674 33.2464 47.1674H32.3331C32.2127 47.1669 32.0934 47.1902 31.982 47.2358C31.8706 47.2815 31.7693 47.3486 31.6839 47.4334C31.5984 47.5182 31.5305 47.619 31.4841 47.7301C31.4376 47.8412 31.4135 47.9603 31.413 48.0807C31.4126 48.2016 31.436 48.3215 31.4821 48.4333C31.5282 48.5452 31.5959 48.6468 31.6815 48.7324C31.767 48.8179 31.8686 48.8856 31.9805 48.9317C32.0923 48.9778 32.2122 49.0012 32.3331 49.0008H33.2464C34.7541 49.0008 35.9999 47.7549 35.9999 46.2473V29.7535C35.9999 28.2458 34.7541 27 33.2464 27H16.7526ZM28.6663 47.1674C28.4244 47.1682 28.1925 47.2647 28.0214 47.4358C27.8503 47.6069 27.7539 47.8387 27.753 48.0807C27.7525 48.2011 27.7758 48.3204 27.8214 48.4318C27.8671 48.5432 27.9342 48.6445 28.0191 48.7299C28.1039 48.8154 28.2047 48.8833 28.3158 48.9298C28.4268 48.9763 28.5459 49.0004 28.6663 49.0008H29.5796C29.7006 49.0012 29.8205 48.9778 29.9323 48.9317C30.0442 48.8856 30.1458 48.8179 30.2313 48.7324C30.3168 48.6468 30.3846 48.5452 30.4307 48.4333C30.4767 48.3215 30.5002 48.2016 30.4997 48.0807C30.4993 47.9603 30.4752 47.8412 30.4287 47.7301C30.3823 47.619 30.3143 47.5182 30.2289 47.4334C30.1435 47.3486 30.0422 47.2815 29.9308 47.2358C29.8194 47.1902 29.7 47.1669 29.5796 47.1674H28.6663Z" fill="#AAAAAA"/>
<path d="M16.5633 36.8911L14.2698 39.1845C14.1843 39.2697 14.1164 39.3709 14.0701 39.4824C14.0238 39.5938 14 39.7133 14 39.834C14 39.9547 14.0238 40.0742 14.0701 40.1856C14.1164 40.2971 14.1843 40.3983 14.2698 40.4835C14.355 40.569 14.4562 40.6368 14.5677 40.6832C14.6791 40.7295 14.7986 40.7533 14.9193 40.7533C15.04 40.7533 15.1595 40.7295 15.271 40.6832C15.3824 40.6368 15.4836 40.569 15.5688 40.4835L17.8555 38.19C18.2645 37.781 18.901 37.781 19.31 38.19L22.9768 41.8568C24.0863 42.9663 25.913 42.9663 27.0224 41.8568L27.9425 40.9367C28.3856 40.4937 29.0701 40.468 29.5459 40.8758L34.4846 45.1109C34.5761 45.1891 34.6821 45.2485 34.7965 45.2857C34.911 45.3229 35.0317 45.3372 35.1517 45.3277C35.2717 45.3183 35.3886 45.2854 35.4959 45.2308C35.6031 45.1761 35.6986 45.1009 35.7767 45.0094C35.8549 44.9179 35.9143 44.8119 35.9515 44.6974C35.9887 44.583 36.0031 44.4623 35.9936 44.3423C35.9842 44.2223 35.9512 44.1053 35.8966 43.9981C35.842 43.8909 35.7668 43.7954 35.6753 43.7172L30.7366 39.4889C29.5465 38.4689 27.7519 38.5362 26.6436 39.6444L25.7302 40.5578C25.3212 40.9668 24.6847 40.9668 24.2757 40.5578L20.6089 36.8909C19.4994 35.7815 17.6727 35.7816 16.5633 36.8911Z" fill="#AAAAAA"/>
<path d="M31.4159 33.4171C31.4159 33.9033 31.2228 34.3695 30.8791 34.7132C30.5353 35.057 30.0691 35.2501 29.583 35.2501C29.0969 35.2501 28.6306 35.057 28.2869 34.7132C27.9432 34.3695 27.7501 33.9033 27.7501 33.4171C27.7501 32.931 27.9432 32.4648 28.2869 32.1211C28.6306 31.7773 29.0969 31.5842 29.583 31.5842C30.0691 31.5842 30.5353 31.7773 30.8791 32.1211C31.2228 32.4648 31.4159 32.931 31.4159 33.4171Z" fill="#AAAAAA"/>
</svg>
